<svg width="121" height="125" viewBox="0 0 121 125" fill="none" xmlns="http://www.w3.org/2000/svg">
<path d="M1 72L30.5 54.5L60.5 72M1 72L30.5 89M1 72V106.5L30.5 123.5M60.5 72L30.5 89M60.5 72V107L30.5 123.5M30.5 89V123.5" stroke="#2C3A42"/>
<path d="M61 72.5L90.5 55L120.5 72.5M61 72.5L90.5 89.5M61 72.5V107L90.5 124M120.5 72.5L90.5 89.5M120.5 72.5V107.5L90.5 124M90.5 89.5V124" stroke="#2C3A42"/>
<path d="M31 18.5L60.5 1L90.5 18.5V53.5L60.5 70L31 53V18.5Z" fill="#2C3A42"/>
<path d="M31 18.5L60.5 1L90.5 18.5M31 18.5L60.5 35.5M31 18.5V53L60.5 70M90.5 18.5L60.5 35.5M90.5 18.5V53.5L60.5 70M60.5 35.5V70" stroke="white"/>
</svg>
