<svg width="140" height="91" viewBox="0 0 140 91" fill="none" xmlns="http://www.w3.org/2000/svg">
<rect x="0.5" y="0.5" width="139" height="90" rx="9.5" stroke="#2C3A42"/>
<rect x="13" y="73" width="50" height="3" rx="1.5" fill="#2C3A42"/>
<path d="M99.7528 63.1278C99.2642 63.1259 98.8438 63.0057 98.4915 62.767C98.1411 62.5284 97.8712 62.1828 97.6818 61.7301C97.4943 61.2775 97.4015 60.733 97.4034 60.0966C97.4034 59.4621 97.4972 58.9214 97.6847 58.4744C97.8741 58.0275 98.1439 57.6875 98.4943 57.4545C98.8466 57.2197 99.2661 57.1023 99.7528 57.1023C100.24 57.1023 100.658 57.2197 101.009 57.4545C101.361 57.6894 101.632 58.0303 101.821 58.4773C102.01 58.9223 102.104 59.4621 102.102 60.0966C102.102 60.7348 102.008 61.2803 101.818 61.733C101.631 62.1856 101.362 62.5312 101.011 62.7699C100.661 63.0085 100.241 63.1278 99.7528 63.1278ZM99.7528 62.108C100.086 62.108 100.352 61.9403 100.551 61.6051C100.75 61.2699 100.848 60.767 100.847 60.0966C100.847 59.6553 100.801 59.2879 100.71 58.9943C100.621 58.7008 100.494 58.4801 100.33 58.3324C100.167 58.1847 99.9744 58.1108 99.7528 58.1108C99.4214 58.1108 99.1563 58.2765 98.9574 58.608C98.7585 58.9394 98.6581 59.4356 98.6562 60.0966C98.6562 60.5436 98.7008 60.9167 98.7898 61.2159C98.8807 61.5133 99.0085 61.7367 99.1733 61.8864C99.3381 62.0341 99.5312 62.108 99.7528 62.108ZM105.261 63.1278C104.772 63.1259 104.352 63.0057 103.999 62.767C103.649 62.5284 103.379 62.1828 103.19 61.7301C103.002 61.2775 102.909 60.733 102.911 60.0966C102.911 59.4621 103.005 58.9214 103.192 58.4744C103.382 58.0275 103.652 57.6875 104.002 57.4545C104.354 57.2197 104.774 57.1023 105.261 57.1023C105.747 57.1023 106.166 57.2197 106.516 57.4545C106.869 57.6894 107.139 58.0303 107.329 58.4773C107.518 58.9223 107.612 59.4621 107.61 60.0966C107.61 60.7348 107.515 61.2803 107.326 61.733C107.138 62.1856 106.87 62.5312 106.519 62.7699C106.169 63.0085 105.749 63.1278 105.261 63.1278ZM105.261 62.108C105.594 62.108 105.86 61.9403 106.059 61.6051C106.258 61.2699 106.356 60.767 106.354 60.0966C106.354 59.6553 106.309 59.2879 106.218 58.9943C106.129 58.7008 106.002 58.4801 105.837 58.3324C105.674 58.1847 105.482 58.1108 105.261 58.1108C104.929 58.1108 104.664 58.2765 104.465 58.608C104.266 58.9394 104.166 59.4356 104.164 60.0966C104.164 60.5436 104.209 60.9167 104.298 61.2159C104.388 61.5133 104.516 61.7367 104.681 61.8864C104.846 62.0341 105.039 62.108 105.261 62.108ZM110.768 63.1278C110.28 63.1259 109.859 63.0057 109.507 62.767C109.157 62.5284 108.887 62.1828 108.697 61.7301C108.51 61.2775 108.417 60.733 108.419 60.0966C108.419 59.4621 108.513 58.9214 108.7 58.4744C108.89 58.0275 109.16 57.6875 109.51 57.4545C109.862 57.2197 110.282 57.1023 110.768 57.1023C111.255 57.1023 111.674 57.2197 112.024 57.4545C112.376 57.6894 112.647 58.0303 112.837 58.4773C113.026 58.9223 113.12 59.4621 113.118 60.0966C113.118 60.7348 113.023 61.2803 112.834 61.733C112.646 62.1856 112.377 62.5312 112.027 62.7699C111.677 63.0085 111.257 63.1278 110.768 63.1278ZM110.768 62.108C111.102 62.108 111.368 61.9403 111.567 61.6051C111.766 61.2699 111.864 60.767 111.862 60.0966C111.862 59.6553 111.817 59.2879 111.726 58.9943C111.637 58.7008 111.51 58.4801 111.345 58.3324C111.182 58.1847 110.99 58.1108 110.768 58.1108C110.437 58.1108 110.172 58.2765 109.973 58.608C109.774 58.9394 109.674 59.4356 109.672 60.0966C109.672 60.5436 109.716 60.9167 109.805 61.2159C109.896 61.5133 110.024 61.7367 110.189 61.8864C110.354 62.0341 110.547 62.108 110.768 62.108ZM116.276 63.1278C115.788 63.1259 115.367 63.0057 115.015 62.767C114.665 62.5284 114.395 62.1828 114.205 61.7301C114.018 61.2775 113.925 60.733 113.927 60.0966C113.927 59.4621 114.021 58.9214 114.208 58.4744C114.397 58.0275 114.667 57.6875 115.018 57.4545C115.37 57.2197 115.79 57.1023 116.276 57.1023C116.763 57.1023 117.182 57.2197 117.532 57.4545C117.884 57.6894 118.155 58.0303 118.344 58.4773C118.534 58.9223 118.628 59.4621 118.626 60.0966C118.626 60.7348 118.531 61.2803 118.342 61.733C118.154 62.1856 117.885 62.5312 117.535 62.7699C117.184 63.0085 116.765 63.1278 116.276 63.1278ZM116.276 62.108C116.61 62.108 116.876 61.9403 117.075 61.6051C117.273 61.2699 117.372 60.767 117.37 60.0966C117.37 59.6553 117.325 59.2879 117.234 58.9943C117.145 58.7008 117.018 58.4801 116.853 58.3324C116.69 58.1847 116.498 58.1108 116.276 58.1108C115.945 58.1108 115.68 58.2765 115.481 58.608C115.282 58.9394 115.182 59.4356 115.18 60.0966C115.18 60.5436 115.224 60.9167 115.313 61.2159C115.404 61.5133 115.532 61.7367 115.697 61.8864C115.862 62.0341 116.055 62.108 116.276 62.108Z" fill="#2C3A42"/>
<path d="M71.7528 63.1278C71.2642 63.1259 70.8438 63.0057 70.4915 62.767C70.1411 62.5284 69.8712 62.1828 69.6818 61.7301C69.4943 61.2775 69.4015 60.733 69.4034 60.0966C69.4034 59.4621 69.4972 58.9214 69.6847 58.4744C69.8741 58.0275 70.1439 57.6875 70.4943 57.4545C70.8466 57.2197 71.2661 57.1023 71.7528 57.1023C72.2396 57.1023 72.6581 57.2197 73.0085 57.4545C73.3608 57.6894 73.6316 58.0303 73.821 58.4773C74.0104 58.9223 74.1042 59.4621 74.1023 60.0966C74.1023 60.7348 74.0076 61.2803 73.8182 61.733C73.6307 62.1856 73.3617 62.5312 73.0114 62.7699C72.661 63.0085 72.2415 63.1278 71.7528 63.1278ZM71.7528 62.108C72.0862 62.108 72.3523 61.9403 72.5511 61.6051C72.75 61.2699 72.8485 60.767 72.8466 60.0966C72.8466 59.6553 72.8011 59.2879 72.7102 58.9943C72.6212 58.7008 72.4943 58.4801 72.3295 58.3324C72.1667 58.1847 71.9744 58.1108 71.7528 58.1108C71.4214 58.1108 71.1563 58.2765 70.9574 58.608C70.7585 58.9394 70.6581 59.4356 70.6562 60.0966C70.6562 60.5436 70.7008 60.9167 70.7898 61.2159C70.8807 61.5133 71.0085 61.7367 71.1733 61.8864C71.3381 62.0341 71.5312 62.108 71.7528 62.108ZM77.2607 63.1278C76.772 63.1259 76.3516 63.0057 75.9993 62.767C75.6489 62.5284 75.379 62.1828 75.1896 61.7301C75.0021 61.2775 74.9093 60.733 74.9112 60.0966C74.9112 59.4621 75.005 58.9214 75.1925 58.4744C75.3819 58.0275 75.6518 57.6875 76.0021 57.4545C76.3544 57.2197 76.7739 57.1023 77.2607 57.1023C77.7474 57.1023 78.166 57.2197 78.5163 57.4545C78.8686 57.6894 79.1394 58.0303 79.3288 58.4773C79.5182 58.9223 79.612 59.4621 79.6101 60.0966C79.6101 60.7348 79.5154 61.2803 79.326 61.733C79.1385 62.1856 78.8696 62.5312 78.5192 62.7699C78.1688 63.0085 77.7493 63.1278 77.2607 63.1278ZM77.2607 62.108C77.594 62.108 77.8601 61.9403 78.0589 61.6051C78.2578 61.2699 78.3563 60.767 78.3544 60.0966C78.3544 59.6553 78.3089 59.2879 78.218 58.9943C78.129 58.7008 78.0021 58.4801 77.8374 58.3324C77.6745 58.1847 77.4822 58.1108 77.2607 58.1108C76.9292 58.1108 76.6641 58.2765 76.4652 58.608C76.2663 58.9394 76.166 59.4356 76.1641 60.0966C76.1641 60.5436 76.2086 60.9167 76.2976 61.2159C76.3885 61.5133 76.5163 61.7367 76.6811 61.8864C76.8459 62.0341 77.0391 62.108 77.2607 62.108ZM82.7685 63.1278C82.2798 63.1259 81.8594 63.0057 81.5071 62.767C81.1567 62.5284 80.8868 62.1828 80.6974 61.7301C80.5099 61.2775 80.4171 60.733 80.419 60.0966C80.419 59.4621 80.5128 58.9214 80.7003 58.4744C80.8897 58.0275 81.1596 57.6875 81.5099 57.4545C81.8622 57.2197 82.2817 57.1023 82.7685 57.1023C83.2552 57.1023 83.6738 57.2197 84.0241 57.4545C84.3764 57.6894 84.6473 58.0303 84.8366 58.4773C85.026 58.9223 85.1198 59.4621 85.1179 60.0966C85.1179 60.7348 85.0232 61.2803 84.8338 61.733C84.6463 62.1856 84.3774 62.5312 84.027 62.7699C83.6766 63.0085 83.2571 63.1278 82.7685 63.1278ZM82.7685 62.108C83.1018 62.108 83.3679 61.9403 83.5668 61.6051C83.7656 61.2699 83.8641 60.767 83.8622 60.0966C83.8622 59.6553 83.8168 59.2879 83.7259 58.9943C83.6368 58.7008 83.5099 58.4801 83.3452 58.3324C83.1823 58.1847 82.9901 58.1108 82.7685 58.1108C82.437 58.1108 82.1719 58.2765 81.973 58.608C81.7741 58.9394 81.6738 59.4356 81.6719 60.0966C81.6719 60.5436 81.7164 60.9167 81.8054 61.2159C81.8963 61.5133 82.0241 61.7367 82.1889 61.8864C82.3537 62.0341 82.5469 62.108 82.7685 62.108ZM88.2763 63.1278C87.7876 63.1259 87.3672 63.0057 87.0149 62.767C86.6645 62.5284 86.3946 62.1828 86.2053 61.7301C86.0178 61.2775 85.925 60.733 85.9268 60.0966C85.9268 59.4621 86.0206 58.9214 86.2081 58.4744C86.3975 58.0275 86.6674 57.6875 87.0178 57.4545C87.37 57.2197 87.7895 57.1023 88.2763 57.1023C88.763 57.1023 89.1816 57.2197 89.532 57.4545C89.8842 57.6894 90.1551 58.0303 90.3445 58.4773C90.5339 58.9223 90.6276 59.4621 90.6257 60.0966C90.6257 60.7348 90.531 61.2803 90.3416 61.733C90.1541 62.1856 89.8852 62.5312 89.5348 62.7699C89.1844 63.0085 88.7649 63.1278 88.2763 63.1278ZM88.2763 62.108C88.6096 62.108 88.8757 61.9403 89.0746 61.6051C89.2734 61.2699 89.3719 60.767 89.37 60.0966C89.37 59.6553 89.3246 59.2879 89.2337 58.9943C89.1446 58.7008 89.0178 58.4801 88.853 58.3324C88.6901 58.1847 88.4979 58.1108 88.2763 58.1108C87.9448 58.1108 87.6797 58.2765 87.4808 58.608C87.282 58.9394 87.1816 59.4356 87.1797 60.0966C87.1797 60.5436 87.2242 60.9167 87.3132 61.2159C87.4041 61.5133 87.532 61.7367 87.6967 61.8864C87.8615 62.0341 88.0547 62.108 88.2763 62.108Z" fill="#2C3A42"/>
<path d="M43.7528 63.1278C43.2642 63.1259 42.8438 63.0057 42.4915 62.767C42.1411 62.5284 41.8712 62.1828 41.6818 61.7301C41.4943 61.2775 41.4015 60.733 41.4034 60.0966C41.4034 59.4621 41.4972 58.9214 41.6847 58.4744C41.8741 58.0275 42.1439 57.6875 42.4943 57.4545C42.8466 57.2197 43.2661 57.1023 43.7528 57.1023C44.2396 57.1023 44.6581 57.2197 45.0085 57.4545C45.3608 57.6894 45.6316 58.0303 45.821 58.4773C46.0104 58.9223 46.1042 59.4621 46.1023 60.0966C46.1023 60.7348 46.0076 61.2803 45.8182 61.733C45.6307 62.1856 45.3617 62.5312 45.0114 62.7699C44.661 63.0085 44.2415 63.1278 43.7528 63.1278ZM43.7528 62.108C44.0862 62.108 44.3523 61.9403 44.5511 61.6051C44.75 61.2699 44.8485 60.767 44.8466 60.0966C44.8466 59.6553 44.8011 59.2879 44.7102 58.9943C44.6212 58.7008 44.4943 58.4801 44.3295 58.3324C44.1667 58.1847 43.9744 58.1108 43.7528 58.1108C43.4214 58.1108 43.1563 58.2765 42.9574 58.608C42.7585 58.9394 42.6581 59.4356 42.6562 60.0966C42.6562 60.5436 42.7008 60.9167 42.7898 61.2159C42.8807 61.5133 43.0085 61.7367 43.1733 61.8864C43.3381 62.0341 43.5312 62.108 43.7528 62.108ZM49.2607 63.1278C48.772 63.1259 48.3516 63.0057 47.9993 62.767C47.6489 62.5284 47.379 62.1828 47.1896 61.7301C47.0021 61.2775 46.9093 60.733 46.9112 60.0966C46.9112 59.4621 47.005 58.9214 47.1925 58.4744C47.3819 58.0275 47.6518 57.6875 48.0021 57.4545C48.3544 57.2197 48.7739 57.1023 49.2607 57.1023C49.7474 57.1023 50.166 57.2197 50.5163 57.4545C50.8686 57.6894 51.1394 58.0303 51.3288 58.4773C51.5182 58.9223 51.612 59.4621 51.6101 60.0966C51.6101 60.7348 51.5154 61.2803 51.326 61.733C51.1385 62.1856 50.8696 62.5312 50.5192 62.7699C50.1688 63.0085 49.7493 63.1278 49.2607 63.1278ZM49.2607 62.108C49.594 62.108 49.8601 61.9403 50.0589 61.6051C50.2578 61.2699 50.3563 60.767 50.3544 60.0966C50.3544 59.6553 50.3089 59.2879 50.218 58.9943C50.129 58.7008 50.0021 58.4801 49.8374 58.3324C49.6745 58.1847 49.4822 58.1108 49.2607 58.1108C48.9292 58.1108 48.6641 58.2765 48.4652 58.608C48.2663 58.9394 48.166 59.4356 48.1641 60.0966C48.1641 60.5436 48.2086 60.9167 48.2976 61.2159C48.3885 61.5133 48.5163 61.7367 48.6811 61.8864C48.8459 62.0341 49.0391 62.108 49.2607 62.108ZM54.7685 63.1278C54.2798 63.1259 53.8594 63.0057 53.5071 62.767C53.1567 62.5284 52.8868 62.1828 52.6974 61.7301C52.5099 61.2775 52.4171 60.733 52.419 60.0966C52.419 59.4621 52.5128 58.9214 52.7003 58.4744C52.8897 58.0275 53.1596 57.6875 53.5099 57.4545C53.8622 57.2197 54.2817 57.1023 54.7685 57.1023C55.2552 57.1023 55.6738 57.2197 56.0241 57.4545C56.3764 57.6894 56.6473 58.0303 56.8366 58.4773C57.026 58.9223 57.1198 59.4621 57.1179 60.0966C57.1179 60.7348 57.0232 61.2803 56.8338 61.733C56.6463 62.1856 56.3774 62.5312 56.027 62.7699C55.6766 63.0085 55.2571 63.1278 54.7685 63.1278ZM54.7685 62.108C55.1018 62.108 55.3679 61.9403 55.5668 61.6051C55.7656 61.2699 55.8641 60.767 55.8622 60.0966C55.8622 59.6553 55.8168 59.2879 55.7259 58.9943C55.6368 58.7008 55.5099 58.4801 55.3452 58.3324C55.1823 58.1847 54.9901 58.1108 54.7685 58.1108C54.437 58.1108 54.1719 58.2765 53.973 58.608C53.7741 58.9394 53.6738 59.4356 53.6719 60.0966C53.6719 60.5436 53.7164 60.9167 53.8054 61.2159C53.8963 61.5133 54.0241 61.7367 54.1889 61.8864C54.3537 62.0341 54.5469 62.108 54.7685 62.108ZM60.2763 63.1278C59.7876 63.1259 59.3672 63.0057 59.0149 62.767C58.6645 62.5284 58.3946 62.1828 58.2053 61.7301C58.0178 61.2775 57.925 60.733 57.9268 60.0966C57.9268 59.4621 58.0206 58.9214 58.2081 58.4744C58.3975 58.0275 58.6674 57.6875 59.0178 57.4545C59.37 57.2197 59.7895 57.1023 60.2763 57.1023C60.763 57.1023 61.1816 57.2197 61.532 57.4545C61.8842 57.6894 62.1551 58.0303 62.3445 58.4773C62.5339 58.9223 62.6276 59.4621 62.6257 60.0966C62.6257 60.7348 62.531 61.2803 62.3416 61.733C62.1541 62.1856 61.8852 62.5312 61.5348 62.7699C61.1844 63.0085 60.7649 63.1278 60.2763 63.1278ZM60.2763 62.108C60.6096 62.108 60.8757 61.9403 61.0746 61.6051C61.2734 61.2699 61.3719 60.767 61.37 60.0966C61.37 59.6553 61.3246 59.2879 61.2337 58.9943C61.1446 58.7008 61.0178 58.4801 60.853 58.3324C60.6901 58.1847 60.4979 58.1108 60.2763 58.1108C59.9448 58.1108 59.6797 58.2765 59.4808 58.608C59.282 58.9394 59.1816 59.4356 59.1797 60.0966C59.1797 60.5436 59.2242 60.9167 59.3132 61.2159C59.4041 61.5133 59.532 61.7367 59.6967 61.8864C59.8615 62.0341 60.0547 62.108 60.2763 62.108Z" fill="#2C3A42"/>
<path d="M15.7528 63.1278C15.2642 63.1259 14.8438 63.0057 14.4915 62.767C14.1411 62.5284 13.8712 62.1828 13.6818 61.7301C13.4943 61.2775 13.4015 60.733 13.4034 60.0966C13.4034 59.4621 13.4972 58.9214 13.6847 58.4744C13.8741 58.0275 14.1439 57.6875 14.4943 57.4545C14.8466 57.2197 15.2661 57.1023 15.7528 57.1023C16.2396 57.1023 16.6581 57.2197 17.0085 57.4545C17.3608 57.6894 17.6316 58.0303 17.821 58.4773C18.0104 58.9223 18.1042 59.4621 18.1023 60.0966C18.1023 60.7348 18.0076 61.2803 17.8182 61.733C17.6307 62.1856 17.3617 62.5312 17.0114 62.7699C16.661 63.0085 16.2415 63.1278 15.7528 63.1278ZM15.7528 62.108C16.0862 62.108 16.3523 61.9403 16.5511 61.6051C16.75 61.2699 16.8485 60.767 16.8466 60.0966C16.8466 59.6553 16.8011 59.2879 16.7102 58.9943C16.6212 58.7008 16.4943 58.4801 16.3295 58.3324C16.1667 58.1847 15.9744 58.1108 15.7528 58.1108C15.4214 58.1108 15.1563 58.2765 14.9574 58.608C14.7585 58.9394 14.6581 59.4356 14.6562 60.0966C14.6562 60.5436 14.7008 60.9167 14.7898 61.2159C14.8807 61.5133 15.0085 61.7367 15.1733 61.8864C15.3381 62.0341 15.5312 62.108 15.7528 62.108ZM21.2607 63.1278C20.772 63.1259 20.3516 63.0057 19.9993 62.767C19.6489 62.5284 19.379 62.1828 19.1896 61.7301C19.0021 61.2775 18.9093 60.733 18.9112 60.0966C18.9112 59.4621 19.005 58.9214 19.1925 58.4744C19.3819 58.0275 19.6518 57.6875 20.0021 57.4545C20.3544 57.2197 20.7739 57.1023 21.2607 57.1023C21.7474 57.1023 22.166 57.2197 22.5163 57.4545C22.8686 57.6894 23.1394 58.0303 23.3288 58.4773C23.5182 58.9223 23.612 59.4621 23.6101 60.0966C23.6101 60.7348 23.5154 61.2803 23.326 61.733C23.1385 62.1856 22.8696 62.5312 22.5192 62.7699C22.1688 63.0085 21.7493 63.1278 21.2607 63.1278ZM21.2607 62.108C21.594 62.108 21.8601 61.9403 22.0589 61.6051C22.2578 61.2699 22.3563 60.767 22.3544 60.0966C22.3544 59.6553 22.3089 59.2879 22.218 58.9943C22.129 58.7008 22.0021 58.4801 21.8374 58.3324C21.6745 58.1847 21.4822 58.1108 21.2607 58.1108C20.9292 58.1108 20.6641 58.2765 20.4652 58.608C20.2663 58.9394 20.166 59.4356 20.1641 60.0966C20.1641 60.5436 20.2086 60.9167 20.2976 61.2159C20.3885 61.5133 20.5163 61.7367 20.6811 61.8864C20.8459 62.0341 21.0391 62.108 21.2607 62.108ZM26.7685 63.1278C26.2798 63.1259 25.8594 63.0057 25.5071 62.767C25.1567 62.5284 24.8868 62.1828 24.6974 61.7301C24.5099 61.2775 24.4171 60.733 24.419 60.0966C24.419 59.4621 24.5128 58.9214 24.7003 58.4744C24.8897 58.0275 25.1596 57.6875 25.5099 57.4545C25.8622 57.2197 26.2817 57.1023 26.7685 57.1023C27.2552 57.1023 27.6738 57.2197 28.0241 57.4545C28.3764 57.6894 28.6473 58.0303 28.8366 58.4773C29.026 58.9223 29.1198 59.4621 29.1179 60.0966C29.1179 60.7348 29.0232 61.2803 28.8338 61.733C28.6463 62.1856 28.3774 62.5312 28.027 62.7699C27.6766 63.0085 27.2571 63.1278 26.7685 63.1278ZM26.7685 62.108C27.1018 62.108 27.3679 61.9403 27.5668 61.6051C27.7656 61.2699 27.8641 60.767 27.8622 60.0966C27.8622 59.6553 27.8168 59.2879 27.7259 58.9943C27.6368 58.7008 27.5099 58.4801 27.3452 58.3324C27.1823 58.1847 26.9901 58.1108 26.7685 58.1108C26.437 58.1108 26.1719 58.2765 25.973 58.608C25.7741 58.9394 25.6738 59.4356 25.6719 60.0966C25.6719 60.5436 25.7164 60.9167 25.8054 61.2159C25.8963 61.5133 26.0241 61.7367 26.1889 61.8864C26.3537 62.0341 26.5469 62.108 26.7685 62.108ZM32.2763 63.1278C31.7876 63.1259 31.3672 63.0057 31.0149 62.767C30.6645 62.5284 30.3946 62.1828 30.2053 61.7301C30.0178 61.2775 29.925 60.733 29.9268 60.0966C29.9268 59.4621 30.0206 58.9214 30.2081 58.4744C30.3975 58.0275 30.6674 57.6875 31.0178 57.4545C31.37 57.2197 31.7895 57.1023 32.2763 57.1023C32.763 57.1023 33.1816 57.2197 33.532 57.4545C33.8842 57.6894 34.1551 58.0303 34.3445 58.4773C34.5339 58.9223 34.6276 59.4621 34.6257 60.0966C34.6257 60.7348 34.531 61.2803 34.3416 61.733C34.1541 62.1856 33.8852 62.5312 33.5348 62.7699C33.1844 63.0085 32.7649 63.1278 32.2763 63.1278ZM32.2763 62.108C32.6096 62.108 32.8757 61.9403 33.0746 61.6051C33.2734 61.2699 33.3719 60.767 33.37 60.0966C33.37 59.6553 33.3246 59.2879 33.2337 58.9943C33.1446 58.7008 33.0178 58.4801 32.853 58.3324C32.6901 58.1847 32.4979 58.1108 32.2763 58.1108C31.9448 58.1108 31.6797 58.2765 31.4808 58.608C31.282 58.9394 31.1816 59.4356 31.1797 60.0966C31.1797 60.5436 31.2242 60.9167 31.3132 61.2159C31.4041 61.5133 31.532 61.7367 31.6967 61.8864C31.8615 62.0341 32.0547 62.108 32.2763 62.108Z" fill="#2C3A42"/>
<rect x="15.5" y="19.5" width="24" height="22" rx="4.5" stroke="#2C3A42"/>
<rect x="15.5" y="30.5" width="24" height="6" stroke="#2C3A42"/>
<rect x="15.5" y="24.5" width="24" height="6" stroke="#2C3A42"/>
<rect x="78" y="15" width="46" height="3" rx="1.5" fill="#2C3A42"/>
</svg>
