<svg width="21" height="17" viewBox="0 0 21 17" fill="none" xmlns="http://www.w3.org/2000/svg">
<path d="M1.71028 1V15.9434M1.71028 1L1 1.65685M1.71028 1L2.42056 1.65685M1.71028 15.9434H20M1.71028 15.9434C2.30218 10.798 3.77009 2.60928 4.90654 11.017C6.3271 21.5266 6.85981 4.9411 8.63551 4.61268C9.85437 4.38725 9.19941 10.6083 10.2336 11.838C11.4766 13.316 12.3645 8.22536 12.1869 6.41902C12.0093 4.61268 12.707 2.3137 13.9626 2.3137C14.8505 2.3137 15.3832 4.9411 15.3832 5.76217C15.3832 6.43923 16.8037 14.137 19.2897 12.0023M1.71028 15.9434C2.12461 14.3012 3.20187 11.5753 4.19626 13.8086C5.43925 16.6002 4.37383 -1.13477 5.61682 2.64213C6.85981 6.41902 7.57009 1.82106 8.63551 2.64213C9.70093 3.46319 10.4112 3.13477 10.7664 4.77689C11.1215 6.41902 13.785 17.5855 15.028 14.3012C16.271 11.017 16.9813 3.29898 19.2897 7.07587M20 15.9434L19.2897 15.2865M20 15.9434L19.2897 16.6002" stroke="#2C3A42" stroke-width="0.5"/>
<path d="M2.06543 15.7791C2.06543 14.3011 3.20185 11.5752 4.19624 13.8085C5.43923 16.6001 4.37384 -1.13485 5.61683 2.64204C6.85982 6.41894 7.5701 1.82098 8.63552 2.64204C9.70094 3.46311 10.4112 3.13468 10.7664 4.77681C11.1215 6.41894 13.7851 17.5854 15.028 14.3011C16.271 11.0169 16.9813 3.29889 19.2897 7.07579" stroke="black" stroke-width="0.5"/>
</svg>
