<svg width="140" height="91" viewBox="0 0 140 91" fill="none" xmlns="http://www.w3.org/2000/svg">
<rect x="0.5" y="0.5" width="139" height="90" rx="9.5" stroke="#2C3A42"/>
<rect x="114.5" y="39.5" width="9" height="7" rx="3.5" stroke="#2C3A42"/>
<rect x="114.5" y="54.5" width="9" height="7" rx="3.5" stroke="#2C3A42"/>
<rect x="114.5" y="69.5" width="9" height="7" rx="3.5" stroke="#2C3A42"/>
<rect x="114.5" y="24.5" width="9" height="7" rx="3.5" stroke="#2C3A42"/>
<rect x="13.5" y="42.5" width="9" height="7" rx="3.5" stroke="#2C3A42"/>
<rect x="13.5" y="57.5" width="9" height="7" rx="3.5" stroke="#2C3A42"/>
<rect x="25.5" y="27.5" width="37" height="7" rx="3.5" stroke="#2C3A42"/>
<rect x="25.5" y="42.5" width="37" height="7" rx="3.5" stroke="#2C3A42"/>
<rect x="25.5" y="57.5" width="37" height="7" rx="3.5" stroke="#2C3A42"/>
<rect x="25.5" y="12.5" width="37" height="7" rx="3.5" stroke="#2C3A42"/>
<rect x="13.5" y="27.5" width="9" height="7" rx="3.5" stroke="#2C3A42"/>
<rect x="13.5" y="12.5" width="9" height="7" rx="3.5" stroke="#2C3A42"/>
<rect x="78.5" y="69.5" width="31" height="7" rx="3.5" stroke="#2C3A42"/>
<rect x="13" y="72" width="50" height="3" rx="1.5" fill="#2C3A42"/>
<rect x="78" y="14" width="46" height="3" rx="1.5" fill="#2C3A42"/>
<rect x="78.5" y="39.5" width="31" height="7" rx="3.5" stroke="#2C3A42"/>
<rect x="78.5" y="54.5" width="31" height="7" rx="3.5" stroke="#2C3A42"/>
<rect x="78.5" y="24.5" width="31" height="7" rx="3.5" stroke="#2C3A42"/>
</svg>
