<svg width="140" height="91" viewBox="0 0 140 91" fill="none" xmlns="http://www.w3.org/2000/svg">
<rect x="0.5" y="0.5" width="139" height="90" rx="9.5" stroke="#2C3A42"/>
<path d="M78.5 27C78.5 25.067 80.067 23.5 82 23.5H119C120.933 23.5 122.5 25.067 122.5 27C122.5 28.933 120.933 30.5 119 30.5H82C80.067 30.5 78.5 28.933 78.5 27Z" stroke="#2C3A42"/>
<rect x="78" y="15" width="46" height="3" rx="1.5" fill="#2C3A42"/>
<path d="M26.8184 36.1816V62.1816C38.6365 60.9998 41.985 65.3332 45.7274 67.4998C50.4547 65.1362 52.8184 60.9998 64.6365 62.1816V36.1816L45.7274 39.7271L26.8184 36.1816Z" fill="#2C3A42" stroke="#2C3A42"/>
<path d="M45.7272 36.1818L24.4544 32.6364H22.0908V42.6818V52.7273C22.0908 53.3182 20.909 53.9091 19.7272 53.9091C18.6701 53.9091 17.3635 53.3182 17.3635 52.7273V24.9545L24.4544 24.3636L45.7272 22L66.9999 25.5455V32.6364L45.7272 36.1818Z" fill="#2C3A42" stroke="#2C3A42"/>
<path d="M22.1502 55.1776C19.1721 56.1987 16.9501 54.732 16.9501 55.1776C16.3 57.8517 16.95 61.8629 15 62.754C15.4333 63.1997 16.56 63.8236 17.6001 62.754C18.6401 61.6844 18.4668 60.8228 18.2501 60.5257H19.5501C20.2001 60.5257 18.9001 64.5367 20.2001 62.754C21.5002 60.9714 20.2001 64.091 21.5002 63.1997C22.8002 62.3084 25.4003 63.1997 24.1002 62.7538C22.1502 62.3083 23.4502 54.7319 22.1502 55.1776Z" fill="#2C3A42" stroke="#2C3A42"/>
<path d="M78.5 40C78.5 38.067 80.067 36.5 82 36.5H119C120.933 36.5 122.5 38.067 122.5 40C122.5 41.933 120.933 43.5 119 43.5H82C80.067 43.5 78.5 41.933 78.5 40Z" stroke="#2C3A42"/>
<path d="M78.5 53C78.5 51.067 80.067 49.5 82 49.5H119C120.933 49.5 122.5 51.067 122.5 53C122.5 54.933 120.933 56.5 119 56.5H82C80.067 56.5 78.5 54.933 78.5 53Z" stroke="#2C3A42"/>
<path d="M78.5 66C78.5 64.067 80.067 62.5 82 62.5H119C120.933 62.5 122.5 64.067 122.5 66C122.5 67.933 120.933 69.5 119 69.5H82C80.067 69.5 78.5 67.933 78.5 66Z" stroke="#2C3A42"/>
</svg>
