<svg width="106" height="93" viewBox="0 0 106 93" fill="none" xmlns="http://www.w3.org/2000/svg">
<path d="M24.6367 29.3633V81.3633C48.2731 78.9996 54.9701 87.6663 62.4549 91.9996C71.9094 87.2724 76.6367 78.9996 100.273 81.3633V29.3633L62.4549 36.4542L24.6367 29.3633Z" fill="#2C3A42" stroke="#2C3A42"/>
<path d="M62.4543 29.3636L19.9089 22.2727H15.1816V42.3636V62.4545C15.1816 63.6364 12.818 64.8182 10.4543 64.8182C8.34022 64.8182 5.72705 63.6364 5.72705 62.4545V6.90909L19.9089 5.72727L62.4543 1L105 8.09091V22.2727L62.4543 29.3636Z" fill="#2C3A42" stroke="#2C3A42"/>
<path d="M15.3004 67.3553C9.34417 69.3974 4.9001 66.464 4.9001 67.3553C3.60007 72.7033 4.9001 80.7258 1 82.5081C1.86669 83.3994 4.12008 84.6473 6.20013 82.5081C8.28018 80.3688 7.93351 78.6456 7.50016 78.0514H10.1002C11.4003 78.0514 8.8002 86.0734 11.4003 82.5081C14.0003 78.9427 11.4003 85.1821 14.0003 83.3994C16.6004 81.6167 21.8005 83.3994 19.2005 82.5076C15.3004 81.6165 17.9004 66.4638 15.3004 67.3553Z" fill="#2C3A42" stroke="#2C3A42"/>
</svg>
