<svg width="140" height="91" viewBox="0 0 140 91" fill="none" xmlns="http://www.w3.org/2000/svg">
<rect x="0.5" y="0.5" width="139" height="90" rx="9.5" stroke="#2C3A42"/>
<path d="M78.5 27C78.5 25.067 80.067 23.5 82 23.5H119C120.933 23.5 122.5 25.067 122.5 27C122.5 28.933 120.933 30.5 119 30.5H82C80.067 30.5 78.5 28.933 78.5 27Z" stroke="#2C3A42"/>
<rect x="78" y="15" width="46" height="3" rx="1.5" fill="#2C3A42"/>
<path d="M78.5 40C78.5 38.067 80.067 36.5 82 36.5H119C120.933 36.5 122.5 38.067 122.5 40C122.5 41.933 120.933 43.5 119 43.5H82C80.067 43.5 78.5 41.933 78.5 40Z" stroke="black"/>
<path d="M19.0561 20V66.7757M19.0561 20L17 22.0561M19.0561 20L21.1121 22.0561M19.0561 66.7757H72M19.0561 66.7757C20.7695 50.6698 25.0187 25.0374 28.3084 51.3551C32.4206 84.2523 33.9626 32.3364 39.1028 31.3084C42.6311 30.6028 40.7351 50.076 43.729 53.9252C47.3271 58.5514 49.8972 42.6168 49.3832 36.9626C48.8692 31.3084 50.8887 24.1121 54.5234 24.1121C57.0935 24.1121 58.6355 32.3364 58.6355 34.9065C58.6355 37.0259 62.7477 61.1215 69.9439 54.4393M19.0561 66.7757C20.2555 61.6355 23.3738 53.1028 26.2523 60.0935C29.8505 68.8318 26.7664 13.3178 30.3645 25.1402C33.9626 36.9626 36.0187 22.5701 39.1028 25.1402C42.1869 27.7103 44.243 26.6822 45.271 31.8224C46.2991 36.9626 54.0093 71.9159 57.6075 61.6355C61.2056 51.3551 63.2617 27.1963 69.9439 39.0187M72 66.7757L69.9439 64.7196M72 66.7757L69.9439 68.8318" stroke="#2C3A42"/>
<path d="M20.0842 66.2617C20.0842 61.6355 23.3739 53.1028 26.2524 60.0935C29.8505 68.8318 26.7665 13.3178 30.3646 25.1402C33.9627 36.9626 36.0188 22.5701 39.1029 25.1402C42.187 27.7103 44.2431 26.6822 45.2711 31.8224C46.2992 36.9626 54.0095 71.9159 57.6076 61.6355C61.2057 51.3551 63.2618 27.1963 69.944 39.0187" stroke="black"/>
</svg>
